<svg width="32" height="32" viewBox="0 0 32 32" fill="none" xmlns="http://www.w3.org/2000/svg">
<path d="M16 20.2857C17.1366 20.2857 18.2267 19.8342 19.0305 19.0305C19.8342 18.2267 20.2857 17.1366 20.2857 16C20.2857 14.8634 19.8342 13.7733 19.0305 12.9695C18.2267 12.1658 17.1366 11.7143 16 11.7143C14.8634 11.7143 13.7733 12.1658 12.9695 12.9695C12.1658 13.7733 11.7143 14.8634 11.7143 16C11.7143 17.1366 12.1658 18.2267 12.9695 19.0305C13.7733 19.8342 14.8634 20.2857 16 20.2857ZM16.8571 4.85714C16.8571 4.62981 16.7668 4.4118 16.6061 4.25105C16.4453 4.09031 16.2273 4 16 4C15.7727 4 15.5547 4.09031 15.3939 4.25105C15.2332 4.4118 15.1429 4.62981 15.1429 4.85714V7.47143C13.1756 7.66913 11.3371 8.54088 9.93899 9.93899C8.54088 11.3371 7.66913 13.1756 7.47143 15.1429H4.85714C4.62981 15.1429 4.4118 15.2332 4.25105 15.3939C4.09031 15.5547 4 15.7727 4 16C4 16.2273 4.09031 16.4453 4.25105 16.6061C4.4118 16.7668 4.62981 16.8571 4.85714 16.8571H7.47143C7.66876 18.8248 8.54035 20.6636 9.93848 22.0621C11.3366 23.4605 13.1753 24.3325 15.1429 24.5303V27.1429C15.1429 27.3702 15.2332 27.5882 15.3939 27.749C15.5547 27.9097 15.7727 28 16 28C16.2273 28 16.4453 27.9097 16.6061 27.749C16.7668 27.5882 16.8571 27.3702 16.8571 27.1429V24.5303C18.8247 24.3325 20.6634 23.4605 22.0615 22.0621C23.4597 20.6636 24.3312 18.8248 24.5286 16.8571H27.1429C27.3702 16.8571 27.5882 16.7668 27.749 16.6061C27.9097 16.4453 28 16.2273 28 16C28 15.7727 27.9097 15.5547 27.749 15.3939C27.5882 15.2332 27.3702 15.1429 27.1429 15.1429H24.5286C24.3309 13.1756 23.4591 11.3371 22.061 9.93899C20.6629 8.54088 18.8244 7.66913 16.8571 7.47143V4.85714ZM16 22.8571C14.1814 22.8571 12.4372 22.1347 11.1513 20.8487C9.8653 19.5628 9.14286 17.8186 9.14286 16C9.14286 14.1814 9.8653 12.4372 11.1513 11.1513C12.4372 9.8653 14.1814 9.14286 16 9.14286C17.8186 9.14286 19.5628 9.8653 20.8487 11.1513C22.1347 12.4372 22.8571 14.1814 22.8571 16C22.8571 17.8186 22.1347 19.5628 20.8487 20.8487C19.5628 22.1347 17.8186 22.8571 16 22.8571Z" fill="#5F85DB"/>
</svg>
